<?xml version="1.0" encoding="UTF-8"?>
<svg id="Layer_1" data-name="Layer 1" xmlns="http://www.w3.org/2000/svg" xmlns:xlink="http://www.w3.org/1999/xlink" version="1.1" viewBox="0 0 244.9 43.9">
  <defs>
    <style>
      .cls-1 {
        fill: url(#linear-gradient);
      }

      .cls-1, .cls-2, .cls-3, .cls-4 {
        stroke-width: 0px;
      }

      .cls-2 {
        fill: url(#linear-gradient-2);
      }

      .cls-3 {
        fill: url(#linear-gradient-3);
      }

      .cls-4 {
        fill: #fff;
      }
    </style>
    <linearGradient id="linear-gradient" x1="14" y1="-7.5" x2="32.7" y2="24.9" gradientTransform="translate(0 46.8) scale(1 -1)" gradientUnits="userSpaceOnUse">
      <stop offset="0" stop-color="#64f028"/>
      <stop offset="1" stop-color="#64f0ff"/>
    </linearGradient>
    <linearGradient id="linear-gradient-2" x1="7.5" y1="2.7" x2="25.9" y2="34.5" gradientTransform="translate(0 46.8) scale(1 -1)" gradientUnits="userSpaceOnUse">
      <stop offset="0" stop-color="#64f028"/>
      <stop offset="1" stop-color="#64f0ff"/>
    </linearGradient>
    <linearGradient id="linear-gradient-3" x1="3" y1="5.6" x2="21.2" y2="37.3" gradientTransform="translate(0 46.8) scale(1 -1)" gradientUnits="userSpaceOnUse">
      <stop offset="0" stop-color="#64f028"/>
      <stop offset="1" stop-color="#64f0ff"/>
    </linearGradient>
  </defs>
  <g>
    <path class="cls-4" d="M47.3.6v4.1h9.9v30.1h5.2V4.7h9.9V.6h-25Z"/>
    <path class="cls-4" d="M91.1,30.2V13.2c0-2-1.6-3.6-3.6-3.6h-12.8v4.6h11.3s0,.9,0,1.6v2.9h-6.1c-5.4,0-9.4,3.6-9.4,8.4s3.3,8.7,9.1,8.3c4-.3,6.2-2.8,6.4-4.4,0,1.7,1.4,3.8,3.6,3.8h4.2v-4.6h-2.7,0ZM85.9,26.3c0,2.3-2.7,4.4-5.7,4.4s-4.9-2.1-4.6-4.4c.3-2.8,2.8-3.4,4.6-3.4h5.7v3.4h0Z"/>
    <path class="cls-4" d="M110.7,9c-2.8.2-5.6,2.1-6.6,4.6v-4.1h-5.2v34.2h5.2v-13.1c1,2.2,3.7,3.8,6.6,4.1,6.1.4,11.5-5.5,11.5-12.9s-5.2-13.3-11.5-12.9h0ZM110.7,30.7c-3.5,0-6.6-3-6.6-8.8s3.1-8.6,6.6-8.6,6.3,3.2,6.3,8.6-3,8.8-6.3,8.8Z"/>
    <path class="cls-4" d="M139.5,9c-2.8.2-5.6,2.1-6.6,4.6v-4.1h-5.2v34.2h5.2v-13.1c1,2.2,3.7,3.8,6.6,4.1,6.1.4,11.5-5.5,11.5-12.9s-5.2-13.3-11.5-12.9h0ZM139.5,30.7c-3.5,0-6.6-3-6.6-8.8s3.1-8.6,6.6-8.6,6.3,3.2,6.3,8.6-3,8.8-6.3,8.8Z"/>
    <path class="cls-4" d="M165.7,30.7V13.8c0-2.7-1.5-4.1-4.1-4.1h-7v4.1h5.9v16.9h-6.3v4.1h17.6v-4.1h-6.2,0Z"/>
    <path class="cls-4" d="M192.2,4.7V.6h-10.6c-1.9,0-3.4,1.5-3.4,3.4v5.6h-7.4v4.1h7.4v21.1h5.2V13.8h8.9v-4.1h-8.9v-4.9h8.9Z"/>
    <path class="cls-4" d="M213.9,9.6l-7.2,20.5-7.2-20.5h-5.5l10.6,26.4s-.7,1.9-.7,2c-.4,1.1-.9,1.7-2.5,1.8h-2.1v4.1h2.9c2.8,0,4.2-1.1,5.5-4.4l11.6-29.9h-5.5,0Z"/>
    <path class="cls-4" d="M239.7.6v13.1c-1-2.2-3.7-3.8-6.6-4.1-6.1-.4-11.5,5.5-11.5,12.9s5.2,13.3,11.5,12.9c2.8-.2,5.6-2.1,6.6-4.6v4.1h5.2V.6h-5.2ZM233.1,31.2c-3.4,0-6.3-3.2-6.3-8.6s3-8.8,6.3-8.8,6.6,3,6.6,8.8-3.1,8.6-6.6,8.6Z"/>
  </g>
  <g>
    <path class="cls-1" d="M29.6,23.6h-5.9v5.9c0,3.3,2.6,5.9,5.9,5.9s3.1-.7,4.2-1.7c1.1-1.1,1.7-2.6,1.7-4.2s-.7-3.1-1.7-4.2c-1.1-1.1-2.5-1.7-4.2-1.7h0Z"/>
    <path class="cls-2" d="M29.6,11.8h-5.9v-5.9c0-3.3,2.6-5.9,5.9-5.9s3.1.7,4.2,1.7c1.1,1.1,1.7,2.6,1.7,4.2s-.7,3.1-1.7,4.2c-1.1,1.1-2.5,1.7-4.2,1.7h0Z"/>
    <path class="cls-3" d="M23.6,14.7v8.9h-11.4c-.2,0-.4.2-.4.4v5.5c0,3.3-2.6,5.9-5.9,5.9s-3.1-.7-4.2-1.7c-1.1-1.1-1.7-2.6-1.7-4.2s.7-3.1,1.7-4.2c1.1-1.1,2.5-1.7,4.2-1.7h3.9c1.1,0,2-.9,2-2v-9.8h9c1.6,0,2.9,1.3,2.9,2.9h0Z"/>
  </g>
</svg>