<?xml version="1.0" encoding="UTF-8"?>
<svg id="Layer_1" data-name="Layer 1" xmlns="http://www.w3.org/2000/svg" version="1.1" viewBox="0 0 827 160.3">
  <defs>
    <style>
      .cls-1 {
        fill: #000;
      }

      .cls-1, .cls-2 {
        stroke-width: 0px;
      }

      .cls-2 {
        fill: #fff;
      }
    </style>
  </defs>
  <g>
    <path class="cls-2" d="M217,42.9h14.3v80.2h-14.3V42.9ZM264.8,59.8c-2.9-3.7-7-5.5-12.2-5.5s-8.2,1.1-11.5,3.4c-3.3,2.2-5.7,5.3-7.4,9.1s-2.5,7.9-2.5,12.4h-6.3c.1-7.2,1.3-13.7,3.7-19.5s5.9-10.5,10.6-14c4.7-3.5,10.4-5.2,17-5.2s10.4,1.4,14.5,4.2c4.1,2.8,7.3,6.9,9.5,12.2s3.3,11.4,3.3,18.4v47.8h-14.4v-47.8c0-6.6-1.4-11.8-4.3-15.5h0ZM316.3,59.9c-3.3-3.7-7.5-5.6-12.8-5.6s-8.1,1.1-11.1,3.4c-3,2.2-5.3,5.2-6.7,9-1.5,3.7-2.2,7.9-2.2,12.5h-8.3c0-7.6,1.2-14.3,3.5-20.2s5.9-10.4,10.6-13.6c4.7-3.2,10.5-4.8,17.3-4.8s10.6,1.4,15,4.3,7.9,7,10.4,12.2c2.5,5.2,3.7,11.3,3.7,18.3v47.8h-14.4v-47.8c0-6.5-1.6-11.7-4.9-15.4h0Z"/>
    <path class="cls-2" d="M368.8,119.8c-6.5-3.8-11.6-8.9-15.4-15.4-3.8-6.5-5.7-13.6-5.7-21.4s1.9-14.9,5.7-21.4,8.9-11.6,15.4-15.4c6.5-3.8,13.5-5.7,21.1-5.7s13.8,1.8,19.4,5.5,9.8,8.8,12.7,15.2c2.9,6.5,4.3,13.7,4.3,21.7s-1.4,15.3-4.3,21.7-7.1,11.5-12.7,15.2-12,5.5-19.4,5.5-14.6-1.9-21.1-5.7h0ZM405.7,108.2c4.5-2.6,8.1-6.1,10.8-10.6,2.6-4.5,3.9-9.4,3.9-14.6s-1.3-10.1-3.9-14.6c-2.6-4.5-6.2-8-10.8-10.6-4.5-2.6-9.5-3.8-14.8-3.8s-10.2,1.3-14.6,3.8c-4.4,2.5-7.9,6-10.5,10.5s-3.9,9.4-3.9,14.8,1.3,10.1,3.9,14.7c2.6,4.5,6.1,8.1,10.6,10.6,4.4,2.5,9.3,3.8,14.7,3.8s10.1-1.3,14.7-3.8h0ZM420.4,42.9h14.3v80.2h-14.3V42.9Z"/>
    <path class="cls-2" d="M452.1,10.8h14.3v112.3h-14.3V10.8h0ZM506.3,64c-1.5-3.2-3.6-5.6-6.3-7.2s-5.9-2.5-9.5-2.5-8.6,1.1-12.2,3.4c-3.6,2.2-6.5,5.3-8.7,9.2-2.1,3.9-3.2,8-3.2,12.3h-6.3c0-6.7,1.4-13.1,4.2-19,2.8-5.9,6.8-10.7,11.9-14.3s10.8-5.4,17.2-5.4,10.7,1.4,15.2,4.3c4.4,2.9,7.9,7,10.3,12.2s3.6,11.3,3.6,18.3v47.8h-14.1v-47.8c0-4.4-.7-8.2-2.2-11.3h0Z"/>
    <path class="cls-2" d="M555.8,119.8c-6.5-3.8-11.6-8.9-15.4-15.4-3.8-6.5-5.7-13.6-5.7-21.4s1.9-14.9,5.7-21.4,8.9-11.6,15.4-15.4c6.5-3.8,13.5-5.7,21.1-5.7s13.8,1.8,19.4,5.5,9.8,8.8,12.7,15.2c2.9,6.5,4.3,13.7,4.3,21.7s-1.4,15.3-4.3,21.7-7.1,11.5-12.7,15.2-12,5.5-19.4,5.5-14.6-1.9-21.1-5.7ZM592.7,108.2c4.5-2.6,8.1-6.1,10.8-10.6,2.6-4.5,3.9-9.4,3.9-14.6s-1.3-10.1-3.9-14.6c-2.6-4.5-6.2-8-10.8-10.6-4.5-2.6-9.5-3.8-14.8-3.8s-10.2,1.3-14.6,3.8c-4.4,2.5-7.9,6-10.5,10.5s-3.9,9.4-3.9,14.8,1.3,10.1,3.9,14.7c2.6,4.5,6.1,8.1,10.6,10.6,4.4,2.5,9.3,3.8,14.7,3.8s10.1-1.3,14.7-3.8h0ZM607.4,42.9h14.3v80.2h-14.3V42.9Z"/>
    <path class="cls-2" d="M639.2,42.9h14.3v80.2h-14.3V42.9ZM651.6,60.4c2.9-5.6,6.8-10,11.7-13.3s10-5,15.5-5v14.8c-4.3,0-8.3,1-12.2,2.9s-7,4.6-9.5,7.9c-2.5,3.4-3.7,7.1-3.7,11.3h-6.3c0-6.8,1.5-13,4.4-18.6h0Z"/>
    <path class="cls-2" d="M699.2,119.8c-6.5-3.8-11.6-8.9-15.4-15.4-3.8-6.5-5.7-13.6-5.7-21.4s1.9-14.9,5.7-21.4,8.9-11.6,15.4-15.4c6.5-3.8,13.5-5.7,21.1-5.7s13.8,1.8,19.4,5.5,9.8,8.8,12.7,15.2c2.9,6.5,4.3,13.7,4.3,21.7s-1.4,15.3-4.3,21.7-7.1,11.5-12.7,15.2-12,5.5-19.4,5.5-14.6-1.9-21.1-5.7ZM736.1,108.2c4.5-2.6,8.1-6.1,10.8-10.6,2.6-4.5,3.9-9.4,3.9-14.6s-1.3-10.1-3.9-14.6c-2.6-4.5-6.2-8-10.8-10.6-4.5-2.6-9.5-3.8-14.8-3.8s-10.2,1.3-14.6,3.8c-4.4,2.5-7.9,6-10.5,10.5s-3.9,9.4-3.9,14.8,1.3,10.1,3.9,14.7c2.6,4.5,6.1,8.1,10.6,10.6,4.4,2.5,9.3,3.8,14.7,3.8s10.1-1.3,14.7-3.8h0ZM750.8,42.9h14.3v80.2h-14.3V42.9Z"/>
    <path class="cls-2" d="M776.8,42.9h50.2v13.8h-50.2v-13.8ZM798.5,119c-4.1-4.3-6.2-10.6-6.2-18.7V22.1h14.1v78.3c0,4,.9,6.9,2.7,8.8,1.8,1.9,4.4,2.9,7.9,2.9s3.3-.2,5-.6c1.8-.4,3.4-1,4.9-1.8v13.5c-1.5.8-3.2,1.3-5.2,1.8s-3.8.6-5.5.6c-7.7,0-13.6-2.2-17.7-6.5h0Z"/>
  </g>
  <g>
    <path class="cls-2" d="M145.1,133.8c-11.6,15.7-29.5,24.5-53,26.2-1.5,0-5.8.3-11.6.3-17.7,0-50.1-2-64.3-15.6l-.4-.5C-2.5,125.1,0,74,.3,68.3,2,44.6,10.8,26.8,26.4,15.2,54.8-5.9,97.7-.4,120.8,4.7c18.5,3.2,31.6,16.2,34.8,34.8,5.1,23.1,10.6,66-10.5,94.3h0Z"/>
    <path class="cls-1" d="M75.6,123c-18.9,0-39.3-6.2-48.8-22.2l-.2-.4c-6.2-12.8-.2-31.8,9.2-42.8,13.9-16.2,36.1-23.7,56.6-19.1,29.1,6.5,47.1,34.2,42.9,65.9l-10.4-1.4c3.5-26.2-11.1-49-34.8-54.3-16.8-3.8-35,2.4-46.4,15.7-6.9,8-11.7,22.8-7.8,31.2,10.6,17.6,42.3,19.9,60.5,13.8,10.3-3.5,15.5-11.4,13.6-20.7-2.9-15.5-18-23.9-31.3-24.2-13.5-.3-23.5,7.1-26.5,19.8v.3c-1,3.1-.4,5.2,2,7.1,8.1,6.6,30.2,6.2,37.4,2.2.5-.3,1.3-1,1-2.9-.6-4-4.9-8.9-8.8-10h-.3c-4.2-1.5-7.4-.4-9.4.7-3.4,2-5.9,5.8-6.6,10.1l-10.3-1.8c1.3-7.4,5.6-13.7,11.7-17.3,5.5-3.2,11.8-3.8,18-1.7,8,2.3,15.1,10.4,16.2,18.5.8,5.7-1.4,10.5-6.1,13.4-10.3,5.7-37.4,6.5-49.2-3.1-5.6-4.6-7.6-11-5.6-18.1,4.2-17.5,18.4-28.1,36.9-27.7,17.5.4,37.4,11.7,41.3,32.6,3,14.4-5.2,27.5-20.5,32.7-6.9,2.3-15.3,3.7-24.1,3.7h0Z"/>
  </g>
</svg>